<?xml version="1.0" encoding="UTF-8"?>
<svg width="235px" height="235px" viewBox="0 0 235 235" version="1.1" xmlns="http://www.w3.org/2000/svg" xmlns:xlink="http://www.w3.org/1999/xlink">
    <!-- Generator: Sketch 52.1 (67048) - http://www.bohemiancoding.com/sketch -->
    <title>noun_ice hockey_1541424</title>
    <desc>Created with Sketch.</desc>
    <g id="Page-1" stroke="none" stroke-width="1" fill="none" fill-rule="evenodd">
        <g id="noun_ice-hockey_1541424" fill="#F5FFFE">
            <g id="Group">
                <path d="M87.801875,235 L29.375,235 C13.1746875,235 0,221.825313 0,205.625 C0,189.424688 13.1746875,176.25 29.375,176.25 L72.615,176.25 L195.196875,9.018125 C199.324062,3.3634375 205.962812,0 212.96875,0 C225.115312,0 235,9.8846875 235,22.03125 C235,26.2171875 233.810312,30.3003125 231.577812,33.8253125 L112.609062,221.355313 C107.174687,229.903438 97.906875,235 87.801875,235 Z M29.375,190.9375 C21.2821875,190.9375 14.6875,197.5175 14.6875,205.625 C14.6875,213.7325 21.2821875,220.3125 29.375,220.3125 L87.801875,220.3125 C92.854375,220.3125 97.495625,217.756875 100.212812,213.482812 L219.181562,25.9528125 C219.930625,24.7778125 220.3125,23.4559375 220.3125,22.03125 C220.3125,17.9775 217.007812,14.6875 212.96875,14.6875 C210.604062,14.6875 208.445,15.7890625 207.049687,17.6984375 L84.453125,184.945 C81.691875,188.705 77.25625,190.9375 72.615,190.9375 L29.375,190.9375 Z" id="Shape" fill-rule="nonzero"></path>
                <rect id="Rectangle" x="44.0625" y="183.59375" width="14.6875" height="44.0625"></rect>
                <polygon id="Rectangle" transform="translate(119.810422, 158.517170) rotate(-54.919261) translate(-119.810422, -158.517170) " points="112.491312 138.271514 127.129533 138.271514 127.129533 178.762825 112.491312 178.762825"></polygon>
                <polygon id="Rectangle" transform="translate(139.866560, 129.200089) rotate(-52.201899) translate(-139.866560, -129.200089) " points="132.515237 110.105743 147.217884 110.105743 147.217884 148.294435 132.515237 148.294435"></polygon>
                <path d="M66.09375,146.875 L7.34375,146.875 C3.29,146.875 0,143.585 0,139.53125 L0,110.15625 C0,106.1025 3.29,102.8125 7.34375,102.8125 L66.09375,102.8125 C70.1475,102.8125 73.4375,106.1025 73.4375,110.15625 L73.4375,139.53125 C73.4375,143.585 70.1475,146.875 66.09375,146.875 Z M14.6875,132.1875 L58.75,132.1875 L58.75,117.5 L14.6875,117.5 L14.6875,132.1875 Z" id="Shape" fill-rule="nonzero"></path>
            </g>
        </g>
    </g>
</svg>