<?xml version="1.0" encoding="UTF-8"?>
<svg width="235px" height="235px" viewBox="0 0 235 235" version="1.1" xmlns="http://www.w3.org/2000/svg" xmlns:xlink="http://www.w3.org/1999/xlink">
    <!-- Generator: Sketch 52.1 (67048) - http://www.bohemiancoding.com/sketch -->
    <title>noun_Football_1541417</title>
    <desc>Created with Sketch.</desc>
    <g id="Page-1" stroke="none" stroke-width="1" fill="none" fill-rule="evenodd">
        <g id="noun_Football_1541417" fill="#5B6176">
            <g id="Group">
                <path d="M57.8059071,234.734804 C45.4422717,234.734804 32.9760943,233.445704 20.5685123,230.794261 C12.2186637,229.007101 5.49483829,222.180733 3.81021971,213.830885 C-8.011408,155.176861 10.2117703,94.8821646 52.5469674,52.5469674 C94.8675157,10.2117703 155.176861,-7.99675914 213.830885,3.81021971 C222.180733,5.48018943 229.007101,12.2186637 230.794261,20.5538634 C243.362981,79.5008646 225.418131,140.161782 182.789956,182.775307 C149.141531,216.467679 104.242784,234.734804 57.8059071,234.734804 Z M178.483192,14.9433511 C135.547392,14.9433511 93.9592866,31.8627811 62.9037094,62.9183583 C24.0549403,101.767127 7.32594543,157.11051 18.1807486,210.94506 C18.7227563,213.640449 20.9640314,215.896373 23.6447723,216.467679 C77.7283529,228.040276 133.350063,211.545663 172.433214,172.433214 C211.545663,133.335415 228.010978,77.713704 216.467679,23.6301234 C215.896373,20.9493826 213.625801,18.7227563 210.94506,18.1807486 C200.148852,16.0127177 189.264751,14.9433511 178.483192,14.9433511 Z" id="Shape" fill-rule="nonzero"></path>
                <path d="M80.8778571,161.446571 C79.0028034,161.446571 77.1277497,160.728777 75.6921617,159.307838 C72.8356346,156.451311 72.8356346,151.807623 75.6921617,148.951096 L148.936447,75.7068106 C151.792975,72.8502834 156.436662,72.8502834 159.293189,75.7068106 C162.149717,78.5633377 162.149717,83.2070254 159.293189,86.0635526 L86.0489037,159.307838 C84.6279646,160.728777 82.7529109,161.446571 80.8778571,161.446571 Z" id="Path"></path>
                <path d="M92.0109886,231.175131 C90.1359349,231.175131 88.2608811,230.457337 86.8252931,229.036398 L6.25657886,148.467684 C3.40005171,145.611157 3.40005171,140.967469 6.25657886,138.110942 C9.113106,135.254415 13.7567937,135.254415 16.6133209,138.110942 L97.1820351,218.679656 C100.038562,221.536183 100.038562,226.179871 97.1820351,229.036398 C95.761096,230.457337 93.8860423,231.175131 92.0109886,231.175131 Z" id="Path"></path>
                <path d="M223.850703,99.3354171 C221.975649,99.3354171 220.100595,98.6176231 218.665007,97.196684 L138.096293,16.6279697 C135.239766,13.7714426 135.239766,9.12775486 138.096293,6.27122771 C140.95282,3.41470057 145.596508,3.41470057 148.453035,6.27122771 L229.021749,86.839942 C231.878277,89.6964691 231.878277,94.3401569 229.021749,97.196684 C227.60081,98.6176231 225.725757,99.3354171 223.850703,99.3354171 Z" id="Path"></path>
            </g>
        </g>
    </g>
</svg>