<?xml version="1.0" encoding="UTF-8"?>
<svg width="235px" height="236px" viewBox="0 0 235 236" version="1.1" xmlns="http://www.w3.org/2000/svg" xmlns:xlink="http://www.w3.org/1999/xlink">
    <!-- Generator: Sketch 52.1 (67048) - http://www.bohemiancoding.com/sketch -->
    <title>noun_Soccer Ball_1541439</title>
    <desc>Created with Sketch.</desc>
    <g id="Page-1" stroke="none" stroke-width="1" fill="none" fill-rule="evenodd">
        <g id="noun_Soccer-Ball_1541439" transform="translate(0.000000, 0.944336)" fill="#333C50">
            <g id="Group">
                <path d="M117.5,235 C52.7134375,235 0,182.286563 0,117.5 C0,52.7134375 52.7134375,0 117.5,0 C182.286562,0 235,52.7134375 235,117.5 C235,182.286563 182.286562,235 117.5,235 Z M117.5,14.6875 C60.80625,14.6875 14.6875,60.80625 14.6875,117.5 C14.6875,174.179062 60.80625,220.3125 117.5,220.3125 C174.179062,220.3125 220.3125,174.179062 220.3125,117.5 C220.3125,60.80625 174.179062,14.6875 117.5,14.6875 Z" id="Shape" fill-rule="nonzero"></path>
                <path d="M146.875,168.90625 L88.125,168.90625 C85.01125,168.90625 82.2353125,166.938125 81.1925,164.000625 L61.716875,108.716875 C60.6446875,105.661875 61.7021875,102.254375 64.3165625,100.345 L113.284687,64.6396875 C115.855,62.7596875 119.365312,62.7596875 121.935625,64.6396875 L170.918437,100.345 C173.5475,102.269062 174.590312,105.69125 173.503437,108.74625 L153.778125,164.03 C152.75,166.952812 149.974062,168.90625 146.875,168.90625 Z M93.324375,154.21875 L141.690312,154.21875 L157.831875,108.98125 L117.6175,79.665 L77.3884375,108.98125 L93.324375,154.21875 Z" id="Shape" fill-rule="nonzero"></path>
                <path d="M117.646875,41.125 C116.4425,41.125 115.238125,40.83125 114.165937,40.24375 L77.1534375,20.26875 C73.584375,18.3446875 72.2478125,13.8796875 74.171875,10.3253125 C76.110625,6.7415625 80.5609375,5.405 84.13,7.34375 L117.646875,25.43875 L151.031562,7.490625 C155.614062,5.023125 161.929687,8.6803125 161.929687,13.953125 C161.929687,17.1109375 159.961562,19.8134375 157.185625,20.8415625 L121.113125,40.24375 C120.040937,40.83125 118.836562,41.125 117.646875,41.125 Z" id="Path"></path>
                <path d="M7.784375,132.040625 C6.0071875,132.040625 4.2153125,131.394375 2.82,130.101875 C-0.17625,127.340625 -0.3525,122.699375 2.3940625,119.717813 L30.3590625,89.329375 L22.4865625,52.81625 C21.6346875,48.850625 24.1609375,44.94375 28.1265625,44.0771875 C32.106875,43.18125 35.9990625,45.7515625 36.8509375,49.7171875 L45.5165625,89.9609375 C46.0159375,92.29625 45.355,94.734375 43.739375,96.4821875 L13.189375,129.690625 C11.7353125,131.2475 9.7671875,132.040625 7.784375,132.040625 Z" id="Path"></path>
                <path d="M80.19375,228.390625 C77.0946875,228.390625 74.20125,226.407813 73.2025,223.294063 L63.1415625,191.965625 L28.5378125,190.041563 C24.49875,189.82125 21.385,186.355 21.62,182.315938 C21.8403125,178.262188 25.0715625,174.854688 29.3603125,175.383438 L69.0165625,177.571875 C72.056875,177.733438 74.67125,179.760313 75.5965625,182.65375 L87.1996875,218.785 C88.4334375,222.6625 86.3184375,226.789688 82.455625,228.023438 C81.691875,228.273125 80.9428125,228.390625 80.19375,228.390625 Z" id="Path"></path>
                <path d="M148.93125,230.3 C147.903125,230.3 146.830937,230.079688 145.846875,229.624375 C142.160312,227.920625 140.559375,223.54375 142.263125,219.871875 L159.888125,181.83125 C160.872187,179.686875 162.825625,178.159375 165.131562,177.71875 L209.047187,169.053125 C212.96875,168.215938 216.875625,170.845 217.66875,174.84 C218.461875,178.820313 215.876875,182.683125 211.881875,183.461563 L171.638125,191.4075 L155.584687,226.040625 C154.350937,228.71375 151.6925,230.3 148.93125,230.3 Z" id="Path"></path>
                <path d="M227.215625,132.040625 C225.218125,132.040625 223.235312,131.232812 221.795937,129.66125 L191.4075,96.4528125 C189.806562,94.6903125 189.145625,92.266875 189.659687,89.94625 L198.325312,49.99625 C199.191875,46.030625 203.142812,43.504375 207.049687,44.3709375 C211.03,45.2375 213.526875,49.144375 212.675,53.11 L204.831875,89.3440625 L232.664687,119.7325 C235.41125,122.72875 235.190937,127.384687 232.209375,130.116562 C230.755312,131.409062 228.992812,132.040625 227.215625,132.040625 Z" id="Path"></path>
                <path d="M117.6175,77.9171875 C113.56375,77.9171875 110.27375,74.6271875 110.27375,70.5734375 L110.27375,33.7078125 C110.27375,29.6540625 113.56375,26.3640625 117.6175,26.3640625 C121.67125,26.3640625 124.96125,29.6540625 124.96125,33.7078125 L124.96125,70.5734375 C124.96125,74.641875 121.67125,77.9171875 117.6175,77.9171875 Z" id="Path"></path>
                <path d="M68.649375,192.28875 C66.9896875,192.28875 65.33,191.730625 63.9640625,190.585 C60.8503125,188 60.424375,183.373438 63.0240625,180.245 L82.485,156.8625 C85.0846875,153.763437 89.71125,153.3375 92.825,155.937187 C95.93875,158.522188 96.3646875,163.14875 93.765,166.277188 L74.3040625,189.659688 C72.85,191.378125 70.764375,192.28875 68.649375,192.28875 Z" id="Path"></path>
                <path d="M166.600312,192.274063 C164.514687,192.274063 162.44375,191.378125 160.989687,189.659688 L141.264375,166.291875 C138.635312,163.192813 139.046562,158.56625 142.145625,155.951875 C145.23,153.352188 149.87125,153.734063 152.485625,156.833125 L172.210937,180.200938 C174.84,183.3 174.42875,187.926563 171.329687,190.540938 C169.949062,191.70125 168.274687,192.274063 166.600312,192.274063 Z" id="Path"></path>
                <path d="M166.600312,113.6225 C163.883125,113.6225 161.283437,112.109688 160.005625,109.51 C158.228437,105.8675 159.726562,101.475938 163.369062,99.6840625 L193.64,84.864375 C197.253125,83.0871875 201.68875,84.5853125 203.465937,88.2278125 C205.243125,91.8703125 203.745,96.261875 200.1025,98.05375 L169.831562,112.873438 C168.78875,113.3875 167.687187,113.6225 166.600312,113.6225 Z" id="Path"></path>
                <path d="M68.6346875,113.6225 C67.5478125,113.6225 66.4609375,113.3875 65.418125,112.873438 L35.161875,98.083125 C31.519375,96.3059375 30.0065625,91.8996875 31.7984375,88.2571875 C33.5903125,84.6146875 37.9671875,83.1165625 41.624375,84.89375 L71.880625,99.6840625 C75.523125,101.46125 77.0359375,105.8675 75.2440625,109.51 C73.96625,112.109688 71.351875,113.6225 68.6346875,113.6225 Z" id="Path"></path>
            </g>
        </g>
    </g>
</svg>