<?xml version="1.0" encoding="UTF-8"?>
<svg width="235px" height="235px" viewBox="0 0 235 235" version="1.1" xmlns="http://www.w3.org/2000/svg" xmlns:xlink="http://www.w3.org/1999/xlink">
    <!-- Generator: Sketch 52.1 (67048) - http://www.bohemiancoding.com/sketch -->
    <title>noun_Basketball_1541396</title>
    <desc>Created with Sketch.</desc>
    <g id="Page-1" stroke="none" stroke-width="1" fill="none" fill-rule="evenodd">
        <g id="noun_Basketball_1541396" fill="#F5FFFE">
            <g id="Group">
                <path d="M117.5,234.94125 C87.4053125,234.94125 57.3253125,223.499688 34.4128125,200.587188 C12.22,178.394375 0,148.887188 0,117.5 C0,86.1128125 12.22,56.605625 34.4128125,34.4128125 C80.2084375,-11.3975 154.762187,-11.4121875 200.5725,34.4128125 C222.78,56.605625 235,86.1128125 235,117.5 C235,148.887188 222.78,178.394375 200.5725,200.587188 C177.674687,223.499688 147.58,234.94125 117.5,234.94125 Z M117.5,14.7315625 C91.18,14.7315625 64.86,24.7484375 44.8115625,44.796875 C25.38,64.2284375 14.6875,90.034375 14.6875,117.5 C14.6875,144.965625 25.38,170.78625 44.796875,190.203125 C84.864375,230.285313 150.076875,230.270625 190.188437,190.203125 C209.605312,170.78625 220.3125,144.950938 220.3125,117.5 C220.3125,90.034375 209.605312,64.2284375 190.188437,44.796875 C170.154687,24.763125 143.82,14.7315625 117.5,14.7315625 Z" id="Shape" fill-rule="nonzero"></path>
                <path d="M195.387813,202.731563 C193.507812,202.731563 191.627813,202.011875 190.188438,200.587188 L34.4128125,44.796875 C31.54875,41.9328125 31.54875,37.276875 34.4128125,34.4128125 C37.276875,31.54875 41.9328125,31.54875 44.796875,34.4128125 L200.5725,190.188438 C203.436563,193.0525 203.436563,197.708438 200.5725,200.5725 C199.147812,202.011875 197.267812,202.731563 195.387813,202.731563 Z" id="Path"></path>
                <path d="M39.6121875,202.731563 C37.7321875,202.731563 35.8521875,202.011875 34.4128125,200.587188 C31.54875,197.723125 31.54875,193.067188 34.4128125,190.203125 L190.188437,34.4128125 C193.0525,31.54875 197.708438,31.54875 200.5725,34.4128125 C203.436563,37.276875 203.436563,41.9328125 200.5725,44.796875 L44.796875,200.5725 C43.3721875,202.011875 41.4921875,202.731563 39.6121875,202.731563 Z" id="Path"></path>
                <path d="M227.494687,126.60625 C227.083437,126.60625 226.6575,126.576875 226.24625,126.503437 C196.75375,121.480312 169.919687,107.600625 148.652187,86.333125 C127.399375,65.0803125 113.505,38.24625 108.496562,8.75375 C107.820937,4.75875 110.50875,0.969375 114.518437,0.2790625 C118.513437,-0.3525 122.302812,2.29125 122.993125,6.28625 C127.4875,32.7678125 139.957187,56.8553125 159.050937,75.9490625 C178.159375,95.0428125 202.246875,107.5125 228.728437,112.021563 C232.723437,112.697188 235.41125,116.50125 234.735625,120.49625 C234.104062,124.08 231.019687,126.60625 227.494687,126.60625 Z" id="Path"></path>
                <path d="M119.247813,234.82375 C115.7375,234.82375 112.62375,232.2975 112.021563,228.71375 C107.527188,202.232188 95.0575,178.144688 75.9490625,159.03625 C56.8553125,139.9425 32.7678125,127.472813 6.28625,122.978438 C2.29125,122.288125 -0.3965625,118.49875 0.2790625,114.50375 C0.969375,110.50875 4.788125,107.879688 8.75375,108.481875 C38.2609375,113.490313 65.0803125,127.384688 86.3478125,148.6375 C107.615313,169.905 121.495,196.739063 126.518125,226.231563 C127.19375,230.226563 124.505938,234.015938 120.510938,234.70625 C120.085,234.794375 119.659063,234.82375 119.247813,234.82375 Z" id="Path"></path>
            </g>
        </g>
    </g>
</svg>