<?xml version="1.0" encoding="UTF-8"?>
<svg width="235px" height="236px" viewBox="0 0 235 236" version="1.1" xmlns="http://www.w3.org/2000/svg" xmlns:xlink="http://www.w3.org/1999/xlink">
    <!-- Generator: Sketch 52.1 (67048) - http://www.bohemiancoding.com/sketch -->
    <title>noun_Baseball_1541397</title>
    <desc>Created with Sketch.</desc>
    <g id="Page-1" stroke="none" stroke-width="1" fill="none" fill-rule="evenodd">
        <g id="noun_Baseball_1541397" transform="translate(0.000000, 0.944336)" fill="#333C50">
            <g id="Group">
                <path d="M32.43,235 C26.555,235 21.0178125,232.70875 16.8465625,228.552188 L6.4625,218.168125 C2.29125,213.996875 0,208.459688 0,202.57 C0,196.680313 2.3059375,191.157813 6.4625,186.986563 C14.775625,178.702813 29.3015625,178.688125 37.6146875,187.00125 L47.99875,197.385313 C52.17,201.541875 54.46125,207.079063 54.46125,212.983438 C54.46125,218.873125 52.1553125,224.395625 47.99875,228.566875 C43.8421875,232.70875 38.305,235 32.43,235 Z M27.230625,218.168125 C30.0065625,220.944062 34.868125,220.95875 37.6146875,218.168125 C39.01,216.772812 39.77375,214.936875 39.77375,212.983437 C39.77375,211.015312 39.01,209.164688 37.6146875,207.784063 L27.230625,197.4 C24.469375,194.624063 19.6225,194.624063 16.8465625,197.4 C15.45125,198.780625 14.6875,200.616563 14.6875,202.57 C14.6875,204.538125 15.45125,206.38875 16.8465625,207.769375 L27.230625,218.168125 Z" id="Shape" fill-rule="nonzero"></path>
                <path d="M42.8140625,209.928438 C40.684375,209.928438 38.5840625,209.017813 37.13,207.240625 C34.7359375,204.3325 34.95625,200.146563 37.4971875,197.488125 C34.83875,200.029063 30.638125,200.264063 27.7446875,197.855313 C24.61625,195.285 24.1609375,190.658438 26.73125,187.53 L169.3175,14.1 C169.464375,13.8503125 169.625938,13.6153125 169.831563,13.395 C176.852188,4.8909375 187.206875,0 198.28125,0 C218.535313,0 235,16.479375 235,36.71875 C235,47.793125 230.109063,58.1625 221.590313,65.15375 C221.355313,65.3446875 221.120313,65.5209375 220.870625,65.6825 L47.4553125,208.254063 C46.1040625,209.385 44.444375,209.928438 42.8140625,209.928438 Z M181.699063,22.1340625 C181.552188,22.354375 181.405313,22.5453125 181.24375,22.7509375 L38.0846875,196.856562 C37.9671875,197.018125 37.835,197.165 37.7028125,197.297187 C37.835,197.150312 37.9965625,197.018125 38.1434375,196.915312 L212.249063,53.75625 C212.454688,53.5946875 212.645625,53.4478125 212.865938,53.3009375 C217.595313,49.115 220.3125,43.1225 220.3125,36.71875 C220.3125,24.5721875 210.427813,14.6875 198.28125,14.6875 C191.8775,14.6875 185.885,17.39 181.699063,22.1340625 Z" id="Shape" fill-rule="nonzero"></path>
                <path d="M82.103125,177.571875 C80.223125,177.571875 78.343125,176.852188 76.90375,175.4275 L59.5725,158.09625 C56.7084375,155.232188 56.7084375,150.57625 59.5725,147.712188 C62.4365625,144.848125 67.0925,144.848125 69.9565625,147.712188 L87.2878125,165.043438 C90.151875,167.9075 90.151875,172.563438 87.2878125,175.4275 C85.863125,176.852188 83.983125,177.571875 82.103125,177.571875 Z" id="Path"></path>
                <path d="M29.375,58.75 C13.1746875,58.75 0,45.5753125 0,29.375 C0,13.1746875 13.1746875,0 29.375,0 C45.5753125,0 58.75,13.1746875 58.75,29.375 C58.75,45.5753125 45.5753125,58.75 29.375,58.75 Z M29.375,14.6875 C21.2821875,14.6875 14.6875,21.2821875 14.6875,29.375 C14.6875,37.4678125 21.2821875,44.0625 29.375,44.0625 C37.4678125,44.0625 44.0625,37.4678125 44.0625,29.375 C44.0625,21.2821875 37.4678125,14.6875 29.375,14.6875 Z" id="Shape" fill-rule="nonzero"></path>
            </g>
        </g>
    </g>
</svg>