<?xml version="1.0" encoding="UTF-8"?>
<svg width="233px" height="237px" viewBox="0 0 233 237" version="1.1" xmlns="http://www.w3.org/2000/svg" xmlns:xlink="http://www.w3.org/1999/xlink">
    <!-- Generator: Sketch 52.1 (67048) - http://www.bohemiancoding.com/sketch -->
    <title>noun_Cricket_1541401</title>
    <desc>Created with Sketch.</desc>
    <g id="Page-1" stroke="none" stroke-width="1" fill="none" fill-rule="evenodd">
        <g id="noun_Cricket_1541401" fill="#5B6176">
            <g id="Group">
                <path d="M25.1762278,236.888471 C21.3267263,236.888471 17.5643833,235.289473 14.8188898,232.491228 L4.65039525,222.142163 C1.86132247,219.299502 0.29246903,215.376036 0.350574713,211.378543 C0.408680396,207.410662 1.97753384,203.724085 4.79565946,201.029478 L62.1169157,142.725304 L62.0442836,142.63647 C53.531801,133.945625 53.531801,119.82115 62.0442836,111.145109 L164.746078,6.47001635 C172.938979,-1.90991329 187.436347,-1.90991329 195.643775,6.47001635 L226.439787,37.8577387 C234.95227,46.5337789 234.95227,60.658254 226.439787,69.3490998 L123.737992,174.024193 C115.240036,182.700233 101.410884,182.715038 92.8838748,174.068609 L35.402828,232.491228 C32.8752307,235.230251 29.258152,236.829248 25.3505448,236.888471 C25.2924391,236.888471 25.2343334,236.888471 25.1762278,236.888471 Z M180.187663,14.7759184 C178.21207,14.7759184 176.381741,15.5458059 175.016258,16.9375256 L72.314463,121.612619 C69.4672846,124.514502 69.4672846,129.267077 72.314463,132.168961 L77.5294481,137.484146 C78.8949316,138.875866 79.6648319,140.756168 79.6648319,142.725304 C79.6648319,144.694439 78.8949316,146.574741 77.5294481,147.966461 L14.9205747,211.645043 L25.1035956,222.038525 L87.7560483,158.374748 C90.5887003,155.48767 95.1935757,155.48767 98.0262278,158.374748 L103.110475,163.571489 C105.841442,166.340123 110.707793,166.340123 113.453287,163.571489 L216.155081,58.896396 C218.95868,56.0389288 218.95868,51.1975207 216.155081,48.3400535 L185.359069,16.9523312 C183.993586,15.5310004 182.163257,14.7759184 180.187663,14.7759184 Z" id="Shape" fill-rule="nonzero"></path>
                <path d="M54.2435956,210.386573 C52.3842138,210.386573 50.5248319,209.661102 49.1012427,208.224966 L28.6189895,187.349169 C25.7863374,184.462091 25.7863374,179.768738 28.6189895,176.88166 C31.4516415,173.994582 36.0565169,173.994582 38.8891689,176.88166 L59.3714222,197.757456 C62.2040742,200.644535 62.2040742,205.337887 59.3714222,208.224966 C57.9623594,209.661102 56.1029775,210.386573 54.2435956,210.386573 Z" id="Path"></path>
                <path d="M203.720465,236.888471 C187.697823,236.888471 174.667624,223.607911 174.667624,207.277412 C174.667624,190.946913 187.697823,177.666353 203.720465,177.666353 C219.743107,177.666353 232.773307,190.946913 232.773307,207.277412 C232.773307,223.607911 219.743107,236.888471 203.720465,236.888471 Z M203.720465,192.471882 C195.701881,192.471882 189.194044,199.10476 189.194044,207.277412 C189.194044,215.450064 195.701881,222.082941 203.720465,222.082941 C211.739049,222.082941 218.246886,215.450064 218.246886,207.277412 C218.246886,199.10476 211.739049,192.471882 203.720465,192.471882 Z" id="Shape" fill-rule="nonzero"></path>
            </g>
        </g>
    </g>
</svg>