<?xml version="1.0" encoding="UTF-8"?>
<svg width="235px" height="235px" viewBox="0 0 235 235" version="1.1" xmlns="http://www.w3.org/2000/svg" xmlns:xlink="http://www.w3.org/1999/xlink">
    <!-- Generator: Sketch 52.1 (67048) - http://www.bohemiancoding.com/sketch -->
    <title>noun_Volleyball_1541451</title>
    <desc>Created with Sketch.</desc>
    <g id="Page-1" stroke="none" stroke-width="1" fill="none" fill-rule="evenodd">
        <g id="noun_Volleyball_1541451" fill="#2390E1">
            <g id="Group">
                <path d="M113.549062,123.698125 C68.15,94.793125 54.7990625,54.1821875 51.5825,25.1890625 L66.181875,23.5734375 C69.03125,49.3646875 80.9428125,85.5253125 121.43625,111.301875 L113.549062,123.698125 Z" id="Path"></path>
                <path d="M93.618125,187.00125 C40.1409375,147.609375 22.26625,96.614375 16.685,60.7475 L31.19625,58.5003125 C36.3515625,91.6353125 52.875,138.752813 102.313125,175.1925 L93.618125,187.00125 Z" id="Path"></path>
                <path d="M70.2209375,220.694375 L61.6728125,208.768125 C78.8571875,196.46 108.011875,168.186563 110.15625,117.191563 L124.84375,117.808438 C122.420312,175.030938 89.59375,206.829375 70.2209375,220.694375 Z" id="Path"></path>
                <path d="M115.370312,233.075938 L106.117187,221.66375 C132.055312,200.63125 164.000625,162.752188 168.935625,101.784375 L183.564375,102.959375 C178.232812,169.126563 143.52625,210.222188 115.370312,233.075938 Z" id="Path"></path>
                <path d="M120.9075,124.006563 L114.0925,110.993438 C164.3825,84.65875 208.62125,96.9815625 230.47625,106.675313 L224.5425,120.114375 C200.763437,109.583438 163.515937,101.681563 120.9075,124.006563 Z" id="Path"></path>
                <path d="M216.596563,85.12875 C196.313125,72.6296875 142.072187,46.853125 76.5659375,77.72625 L70.3090625,64.44875 C142.277812,30.49125 201.9825,58.8528125 224.322188,72.6296875 L216.596563,85.12875 Z" id="Path"></path>
                <path d="M117.5,235 C52.7134375,235 0,182.286563 0,117.5 C0,52.7134375 52.7134375,0 117.5,0 C182.286562,0 235,52.7134375 235,117.5 C235,182.286563 182.286562,235 117.5,235 Z M117.5,14.6875 C60.80625,14.6875 14.6875,60.80625 14.6875,117.5 C14.6875,174.179062 60.80625,220.3125 117.5,220.3125 C174.179063,220.3125 220.3125,174.179062 220.3125,117.5 C220.3125,60.80625 174.179063,14.6875 117.5,14.6875 Z" id="Shape" fill-rule="nonzero"></path>
            </g>
        </g>
    </g>
</svg>