<?xml version="1.0" encoding="UTF-8"?>
<svg width="205px" height="206px" viewBox="0 0 205 206" version="1.1" xmlns="http://www.w3.org/2000/svg" xmlns:xlink="http://www.w3.org/1999/xlink">
    <!-- Generator: Sketch 52.1 (67048) - http://www.bohemiancoding.com/sketch -->
    <title>noun_Soccer Ball_1541439</title>
    <desc>Created with Sketch.</desc>
    <g id="Page-1" stroke="none" stroke-width="1" fill="none" fill-rule="evenodd">
        <g id="noun_Soccer-Ball_1541439" transform="translate(102.500000, 103.444336) rotate(13.000000) translate(-102.500000, -103.444336) translate(0.000000, 0.944336)" fill="#333C50">
            <g id="Group">
                <path d="M102.5,205 C45.9840625,205 0,159.015938 0,102.5 C0,45.9840625 45.9840625,0 102.5,0 C159.015937,0 205,45.9840625 205,102.5 C205,159.015938 159.015937,205 102.5,205 Z M102.5,12.8125 C53.04375,12.8125 12.8125,53.04375 12.8125,102.5 C12.8125,151.943437 53.04375,192.1875 102.5,192.1875 C151.943437,192.1875 192.1875,151.943437 192.1875,102.5 C192.1875,53.04375 151.943437,12.8125 102.5,12.8125 Z" id="Shape" fill-rule="nonzero"></path>
                <path d="M128.125,147.34375 L76.875,147.34375 C74.15875,147.34375 71.7371875,145.626875 70.8275,143.064375 L53.838125,94.838125 C52.9028125,92.173125 53.8253125,89.200625 56.1059375,87.535 L98.8228125,56.3878125 C101.065,54.7478125 104.127187,54.7478125 106.369375,56.3878125 L149.099062,87.535 C151.3925,89.2134375 152.302187,92.19875 151.354062,94.86375 L134.146875,143.09 C133.25,145.639687 130.828437,147.34375 128.125,147.34375 Z M81.410625,134.53125 L123.602187,134.53125 L137.683125,95.06875 L102.6025,69.495 L67.5090625,95.06875 L81.410625,134.53125 Z" id="Shape" fill-rule="nonzero"></path>
                <path d="M102.628125,35.875 C101.5775,35.875 100.526875,35.61875 99.5915625,35.10625 L67.3040625,17.68125 C64.190625,16.0028125 63.0246875,12.1078125 64.703125,9.0071875 C66.394375,5.8809375 70.2765625,4.715 73.39,6.40625 L102.628125,22.19125 L131.750937,6.534375 C135.748437,4.381875 141.257812,7.5721875 141.257812,12.171875 C141.257812,14.9265625 139.540937,17.2840625 137.119375,18.1809375 L105.651875,35.10625 C104.716562,35.61875 103.665937,35.875 102.628125,35.875 Z" id="Path"></path>
                <path d="M6.790625,115.184375 C5.2403125,115.184375 3.6771875,114.620625 2.46,113.493125 C-0.15375,111.084375 -0.3075,107.035625 2.0884375,104.434687 L26.4834375,77.925625 L19.6159375,46.07375 C18.8728125,42.614375 21.0765625,39.20625 24.5359375,38.4503125 C28.008125,37.66875 31.4034375,39.9109375 32.1465625,43.3703125 L39.7059375,78.4765625 C40.1415625,80.51375 39.565,82.640625 38.155625,84.1653125 L11.505625,113.134375 C10.2371875,114.4925 8.5203125,115.184375 6.790625,115.184375 Z" id="Path"></path>
                <path d="M69.95625,199.234375 C67.2528125,199.234375 64.72875,197.504688 63.8575,194.788438 L55.0809375,167.459375 L24.8946875,165.780938 C21.37125,165.58875 18.655,162.565 18.86,159.041563 C19.0521875,155.505313 21.8709375,152.532813 25.6121875,152.994063 L60.2059375,154.903125 C62.858125,155.044063 65.13875,156.812188 65.9459375,159.33625 L76.0678125,190.855 C77.1440625,194.2375 75.2990625,197.837813 71.929375,198.914063 C71.263125,199.131875 70.6096875,199.234375 69.95625,199.234375 Z" id="Path"></path>
                <path d="M129.91875,200.9 C129.021875,200.9 128.086562,200.707813 127.228125,200.310625 C124.012187,198.824375 122.615625,195.00625 124.101875,191.803125 L139.476875,158.61875 C140.335312,156.748125 142.039375,155.415625 144.050937,155.03125 L182.360312,147.471875 C185.78125,146.741562 189.189375,149.035 189.88125,152.52 C190.573125,155.992188 188.318125,159.361875 184.833125,160.040938 L149.726875,166.9725 L135.722812,197.184375 C134.646562,199.51625 132.3275,200.9 129.91875,200.9 Z" id="Path"></path>
                <path d="M198.209375,115.184375 C196.466875,115.184375 194.737187,114.479688 193.481562,113.10875 L166.9725,84.1396875 C165.575937,82.6021875 164.999375,80.488125 165.447812,78.46375 L173.007187,43.61375 C173.763125,40.154375 177.209687,37.950625 180.617812,38.7065625 C184.09,39.4625 186.268125,42.870625 185.525,46.33 L178.683125,77.9384375 L202.962812,104.4475 C205.35875,107.06125 205.166562,111.122813 202.565625,113.505938 C201.297187,114.633438 199.759687,115.184375 198.209375,115.184375 Z" id="Path"></path>
                <path d="M102.6025,67.9703125 C99.06625,67.9703125 96.19625,65.1003125 96.19625,61.5640625 L96.19625,29.4046875 C96.19625,25.8684375 99.06625,22.9984375 102.6025,22.9984375 C106.13875,22.9984375 109.00875,25.8684375 109.00875,29.4046875 L109.00875,61.5640625 C109.00875,65.113125 106.13875,67.9703125 102.6025,67.9703125 Z" id="Path"></path>
                <path d="M59.885625,167.74125 C58.4378125,167.74125 56.99,167.254375 55.7984375,166.255 C53.0821875,164 52.710625,159.964062 54.9784375,157.235 L71.955,136.8375 C74.2228125,134.134062 78.25875,133.7625 80.975,136.030312 C83.69125,138.285312 84.0628125,142.32125 81.795,145.050312 L64.8184375,165.447812 C63.55,166.946875 61.730625,167.74125 59.885625,167.74125 Z" id="Path"></path>
                <path d="M145.332187,167.728438 C143.512812,167.728438 141.70625,166.946875 140.437812,165.447813 L123.230625,145.063125 C120.937187,142.359688 121.295937,138.32375 123.999375,136.043125 C126.69,133.775313 130.73875,134.108438 133.019375,136.811875 L150.226562,157.196563 C152.52,159.9 152.16125,163.935938 149.457812,166.216563 C148.253437,167.22875 146.792812,167.728438 145.332187,167.728438 Z" id="Path"></path>
                <path d="M145.332187,99.1175 C142.961875,99.1175 140.694062,97.7978125 139.579375,95.53 C138.029062,92.3525 139.335937,88.5215625 142.513437,86.9584375 L168.92,74.030625 C172.071875,72.4803125 175.94125,73.7871875 177.491562,76.9646875 C179.041875,80.1421875 177.735,83.973125 174.5575,85.53625 L148.150937,98.4640625 C147.24125,98.9125 146.280312,99.1175 145.332187,99.1175 Z" id="Path"></path>
                <path d="M59.8728125,99.1175 C58.9246875,99.1175 57.9765625,98.9125 57.066875,98.4640625 L30.673125,85.561875 C27.495625,84.0115625 26.1759375,80.1678125 27.7390625,76.9903125 C29.3021875,73.8128125 33.1203125,72.5059375 36.310625,74.05625 L62.704375,86.9584375 C65.881875,88.50875 67.2015625,92.3525 65.6384375,95.53 C64.52375,97.7978125 62.243125,99.1175 59.8728125,99.1175 Z" id="Path"></path>
            </g>
        </g>
    </g>
</svg>